<svg width="574" height="948" viewBox="0 0 574 948" fill="none" xmlns="http://www.w3.org/2000/svg">
<rect x="233.179" y="691.496" width="20.1016" height="104.529" fill="#C4C4C4"/>
<rect x="305.545" y="691.496" width="20.1016" height="104.529" fill="#C4C4C4"/>
<path d="M432.855 82.8187L468.368 21.3077L503.882 82.8187H432.855Z" fill="#C4C4C4" stroke="black" stroke-width="1.2061"/>
<path d="M287.453 0L324.011 81.4116H250.896L287.453 0Z" fill="#C4C4C4"/>
<path d="M176.341 428.165L63.0786 82.4167H283.433H503.787L390.525 428.165H176.341Z" fill="#D0D0D0" stroke="black" stroke-width="4.02033"/>
<rect x="262.728" y="431.582" width="41.4094" height="17.2874" fill="#49FF92" stroke="black" stroke-width="2.81423"/>
<rect x="262.728" y="451.684" width="41.4094" height="17.2874" fill="#4578FC" stroke="black" stroke-width="2.81423"/>
<rect x="262.728" y="471.785" width="41.4094" height="17.2874" fill="#E91010" stroke="black" stroke-width="2.81423"/>
<path d="M142.119 154.18H253.368L215.078 185.604L142.119 195.388V154.18Z" fill="#E91010" stroke="black" stroke-width="2.81423"/>
<path d="M420.727 154.18H309.477L347.767 185.604L420.727 195.388V154.18Z" fill="#E91010" stroke="black" stroke-width="2.81423"/>
<path d="M148.752 104.529H265.342V128.65L209.057 123.29L148.752 104.529Z" fill="black"/>
<path d="M414.094 104.529H297.504V128.65L353.789 123.29L414.094 104.529Z" fill="black"/>
<g filter="url(#filter0_d_2_53)">
<rect x="265.342" y="176.894" width="32.1626" height="80.4065" fill="black"/>
</g>
<g filter="url(#filter1_d_2_53)">
<rect x="245.24" y="229.159" width="20.1016" height="32.1626" fill="#C4C4C4"/>
</g>
<g filter="url(#filter2_d_2_53)">
<rect x="297.504" y="229.159" width="20.1016" height="32.1626" fill="#C4C4C4"/>
</g>
<path d="M256.981 327.263L253.56 310.161H264.02L260.599 327.263L258.79 331.786L256.981 327.263Z" fill="#FFFFFE" stroke="black" stroke-width="1.19121"/>
<path d="M253.407 333.56L249.987 350.662H260.446L257.025 333.56L255.216 329.037L253.407 333.56Z" fill="#FFFFFE" stroke="black" stroke-width="1.19121"/>
<path d="M267.702 328.454L264.281 311.352H274.74L271.32 328.454L269.511 332.977L267.702 328.454Z" fill="#FFFFFE" stroke="black" stroke-width="1.19121"/>
<path d="M262.937 335.942L259.516 353.044H269.976L266.555 335.942L264.746 331.419L262.937 335.942Z" fill="#FFFFFE" stroke="black" stroke-width="1.19121"/>
<path d="M278.423 329.645L275.002 312.543H285.461L282.041 329.645L280.232 334.168L278.423 329.645Z" fill="#FFFFFE" stroke="black" stroke-width="1.19121"/>
<path d="M272.467 338.325L269.046 355.427H279.505L276.085 338.325L274.276 333.802L272.467 338.325Z" fill="#FFFFFE" stroke="black" stroke-width="1.19121"/>
<path d="M289.144 328.454L285.723 311.352H296.182L292.762 328.454L290.953 332.977L289.144 328.454Z" fill="#FFFFFE" stroke="black" stroke-width="1.19121"/>
<path d="M284.379 338.325L280.958 355.427H291.417L287.997 338.325L286.188 333.802L284.379 338.325Z" fill="#FFFFFE" stroke="black" stroke-width="1.19121"/>
<path d="M299.864 327.263L296.444 310.161H306.903L303.482 327.263L301.673 331.786L299.864 327.263Z" fill="#FFFFFE" stroke="black" stroke-width="1.19121"/>
<path d="M296.291 335.942L292.87 353.044H303.329L299.909 335.942L298.1 331.419L296.291 335.942Z" fill="#FFFFFE" stroke="black" stroke-width="1.19121"/>
<path d="M305.82 333.56L302.4 350.662H312.859L309.439 333.56L307.63 329.037L305.82 333.56Z" fill="#FFFFFE" stroke="black" stroke-width="1.19121"/>
<path d="M441.05 490.636L279.704 771.372L117.252 491.273L441.05 490.636Z" fill="#C4C4C4" stroke="black" stroke-width="4.02033"/>
<path d="M92.0143 752.905C71.9127 688.58 21.6587 553.899 190.512 515.705M481.986 752.905C502.087 688.58 552.341 553.899 383.488 515.706" stroke="#C4C4C4" stroke-width="40.2033"/>
<path d="M184.482 521.736H244.787V582.041L202.573 569.98L184.482 521.736Z" fill="#49FF92"/>
<path d="M357.436 559.7L347.305 610.183L313.052 632.524L314.819 588.657L357.436 559.7Z" fill="#EB40CF"/>
<path d="M262.878 580.031L295.041 574V634.305L252.827 622.244L262.878 580.031Z" fill="#FFD749"/>
<path d="M270.443 569.097L248.807 544.547L300.622 513.695L311.856 556.137L270.443 569.097Z" fill="#4578FC"/>
<path d="M334.768 542.825L313.132 518.275L345.295 518.275L376.181 529.865L334.768 542.825Z" fill="#E91010"/>
<path d="M237.273 595.58L240.598 628.133L214.433 609.43L196.045 582.041L237.273 595.58Z" fill="#E95E10"/>
<path d="M280.97 702.651L308.823 654.407H253.116L280.97 702.651Z" fill="#49FF92"/>
<defs>
<filter id="filter0_d_2_53" x="249.26" y="176.894" width="64.3252" height="112.569" filterUnits="userSpaceOnUse" color-interpolation-filters="sRGB">
<feFlood flood-opacity="0" result="BackgroundImageFix"/>
<feColorMatrix in="SourceAlpha" type="matrix" values="0 0 0 0 0 0 0 0 0 0 0 0 0 0 0 0 0 0 127 0" result="hardAlpha"/>
<feOffset dy="16.0813"/>
<feGaussianBlur stdDeviation="8.04066"/>
<feComposite in2="hardAlpha" operator="out"/>
<feColorMatrix type="matrix" values="0 0 0 0 0 0 0 0 0 0 0 0 0 0 0 0 0 0 0.25 0"/>
<feBlend mode="normal" in2="BackgroundImageFix" result="effect1_dropShadow_2_53"/>
<feBlend mode="normal" in="SourceGraphic" in2="effect1_dropShadow_2_53" result="shape"/>
</filter>
<filter id="filter1_d_2_53" x="229.159" y="229.159" width="52.2643" height="64.3252" filterUnits="userSpaceOnUse" color-interpolation-filters="sRGB">
<feFlood flood-opacity="0" result="BackgroundImageFix"/>
<feColorMatrix in="SourceAlpha" type="matrix" values="0 0 0 0 0 0 0 0 0 0 0 0 0 0 0 0 0 0 127 0" result="hardAlpha"/>
<feOffset dy="16.0813"/>
<feGaussianBlur stdDeviation="8.04066"/>
<feComposite in2="hardAlpha" operator="out"/>
<feColorMatrix type="matrix" values="0 0 0 0 0 0 0 0 0 0 0 0 0 0 0 0 0 0 0.25 0"/>
<feBlend mode="normal" in2="BackgroundImageFix" result="effect1_dropShadow_2_53"/>
<feBlend mode="normal" in="SourceGraphic" in2="effect1_dropShadow_2_53" result="shape"/>
</filter>
<filter id="filter2_d_2_53" x="281.423" y="229.159" width="52.2643" height="64.3252" filterUnits="userSpaceOnUse" color-interpolation-filters="sRGB">
<feFlood flood-opacity="0" result="BackgroundImageFix"/>
<feColorMatrix in="SourceAlpha" type="matrix" values="0 0 0 0 0 0 0 0 0 0 0 0 0 0 0 0 0 0 127 0" result="hardAlpha"/>
<feOffset dy="16.0813"/>
<feGaussianBlur stdDeviation="8.04066"/>
<feComposite in2="hardAlpha" operator="out"/>
<feColorMatrix type="matrix" values="0 0 0 0 0 0 0 0 0 0 0 0 0 0 0 0 0 0 0.25 0"/>
<feBlend mode="normal" in2="BackgroundImageFix" result="effect1_dropShadow_2_53"/>
<feBlend mode="normal" in="SourceGraphic" in2="effect1_dropShadow_2_53" result="shape"/>
</filter>
</defs>
</svg>
